<?xml version="1.0" standalone="no"?>
<!DOCTYPE svg PUBLIC "-//W3C//DTD SVG 20010904//EN"
 "http://www.w3.org/TR/2001/REC-SVG-20010904/DTD/svg10.dtd">
<svg version="1.0" xmlns="http://www.w3.org/2000/svg"
 width="300.000000pt" height="175.000000pt" viewBox="0 0 300.000000 175.000000"
 preserveAspectRatio="xMidYMid meet">
<metadata>
Created by potrace 1.10, written by Peter Selinger 2001-2011
</metadata>
<g transform="translate(0.000000,175.000000) scale(0.100000,-0.100000)"
fill="#000000" stroke="none">
<path d="M1880 1639 c-34 -14 -159 -38 -245 -47 -135 -14 -424 -7 -505 12
-132 32 -123 33 -149 -16 -103 -187 -278 -436 -431 -612 -152 -177 -492 -519
-501 -505 -11 18 -31 0 -24 -22 4 -11 2 -19 -4 -19 -6 0 -11 -4 -11 -10 0 -12
57 -12 85 0 19 8 19 9 -2 9 -13 1 -23 5 -23 10 0 17 195 192 210 189 11 -3 16
-21 18 -74 3 -69 2 -72 -23 -78 -14 -4 -25 -11 -25 -17 0 -6 5 -7 10 -4 14 9
120 -5 120 -16 0 -4 -10 -17 -22 -29 -14 -13 -17 -20 -8 -20 8 0 23 9 35 20
16 15 29 19 53 14 18 -4 29 -11 25 -17 -3 -5 -2 -7 3 -4 14 8 154 -24 148 -34
-3 -5 13 -9 35 -9 43 0 56 -18 20 -27 -11 -3 -16 -9 -11 -12 6 -3 -10 -34 -36
-69 -26 -35 -48 -58 -50 -52 -6 18 -22 0 -22 -26 0 -13 -4 -24 -10 -24 -5 0
-10 -4 -10 -10 0 -5 20 -10 44 -10 25 0 48 5 51 10 3 6 -1 10 -9 10 -9 0 -16
7 -16 16 0 23 91 144 103 137 6 -3 7 -2 4 4 -4 6 0 19 8 29 8 10 15 14 15 8 0
-6 6 -11 14 -11 27 0 106 -26 106 -35 0 -5 4 -7 10 -3 14 9 61 -6 54 -17 -4
-6 2 -8 15 -3 24 7 64 -3 56 -15 -3 -4 4 -6 15 -3 11 3 28 2 37 -2 10 -5 24
-9 31 -11 23 -4 22 -8 -13 -59 -18 -28 -31 -53 -28 -58 2 -4 -6 -11 -18 -15
-33 -12 -11 -19 44 -14 45 4 68 22 27 22 -26 0 -25 10 8 65 29 49 25 48 115
23 27 -7 45 -16 42 -20 -4 -4 3 -4 16 -1 16 5 20 3 14 -6 -6 -10 -3 -11 15 -1
12 6 28 9 36 6 10 -4 12 -2 8 6 -5 7 0 9 14 6 12 -4 22 -3 22 2 0 4 10 8 23 8
12 0 67 7 122 17 55 9 125 18 156 18 32 1 55 5 52 10 -2 4 9 7 25 7 16 0 42 4
58 10 16 5 94 19 174 30 80 12 156 23 170 25 128 21 347 55 395 61 33 4 67 8
74 9 8 1 17 8 19 15 3 9 -1 11 -11 7 -19 -7 -27 12 -27 64 0 28 4 37 13 33 14
-5 69 -11 119 -13 20 -1 49 -22 105 -76 l78 -75 -32 0 c-18 0 -33 -4 -33 -10
0 -6 27 -10 60 -10 33 0 60 4 60 10 0 6 -7 10 -15 10 -9 0 -14 8 -12 23 1 16
-3 22 -16 21 -9 -1 -47 27 -85 62 l-67 63 59 1 c78 0 65 15 -17 19 -17 1 -17
3 2 27 12 15 21 33 21 40 0 9 21 14 73 16 43 2 70 7 67 13 -3 5 -33 8 -67 6
-44 -2 -63 1 -63 9 0 24 -34 82 -56 96 -12 9 -71 22 -131 29 -59 8 -120 17
-135 21 -54 11 -309 367 -490 684 -99 172 -107 180 -158 159z m9 -95 c-131
-290 -302 -619 -417 -804 -100 -161 -213 -320 -228 -320 -7 0 9 29 35 64 67
88 243 373 332 536 40 74 124 240 186 369 63 128 116 231 119 229 2 -3 -10
-36 -27 -74z m-9 61 c0 -15 -269 -547 -330 -654 -154 -268 -334 -536 -355
-528 -6 3 -84 21 -175 42 -91 20 -171 39 -178 41 -8 2 14 38 57 96 108 144
254 363 311 468 29 52 61 109 71 127 11 17 16 34 10 37 -5 3 -41 -52 -80 -123
-39 -70 -99 -171 -134 -224 -99 -152 -261 -365 -277 -367 -13 0 -268 60 -279
67 -2 1 5 10 15 20 35 35 212 279 300 413 84 129 244 417 281 507 l18 43 80
-7 c44 -4 110 -7 147 -8 38 0 68 -3 68 -6 0 -9 -41 -99 -89 -198 -23 -47 -40
-90 -37 -95 4 -12 132 247 138 279 3 18 14 21 114 27 103 6 293 34 303 44 6 6
21 5 21 -1z m-789 -22 c16 -3 29 -8 29 -10 0 -9 -107 -218 -160 -313 -75 -136
-224 -360 -347 -524 -59 -77 -107 -142 -108 -143 -1 -2 -52 11 -113 28 l-112
31 117 122 c233 241 448 521 578 755 35 63 43 71 64 66 13 -3 36 -9 52 -12z
m1031 -291 c145 -228 263 -389 397 -543 50 -57 88 -105 85 -108 -3 -3 -14 5
-24 19 -10 14 -26 25 -34 25 -31 0 -184 190 -348 430 -79 117 -103 156 -69
115 27 -32 27 -17 0 26 -11 19 -26 31 -31 28 -7 -4 -8 -2 -4 5 4 6 -1 23 -12
39 -33 46 -142 250 -142 264 0 7 27 -36 60 -95 33 -60 88 -152 122 -205z
m-202 221 c0 -30 -3 -35 -11 -23 -9 12 -10 11 -6 -6 4 -20 -9 -129 -32 -257
-13 -75 -73 -303 -106 -403 -50 -151 -154 -518 -149 -526 3 -4 31 -9 62 -9
l57 -2 -65 -9 c-36 -5 -133 -20 -217 -34 -83 -13 -154 -24 -157 -24 -3 0 -6
46 -6 102 l0 102 84 126 c131 195 229 366 357 618 64 128 119 229 121 225 3
-5 3 -2 1 6 -3 12 55 151 63 151 2 0 4 -17 4 -37z m100 -125 c78 -157 140
-259 267 -436 96 -135 258 -332 272 -332 9 0 24 -121 15 -129 -3 -3 -9 1 -14
9 -7 11 -10 11 -10 2 0 -7 7 -15 15 -18 15 -6 22 -64 8 -64 -5 0 -51 -7 -103
-15 -116 -18 -107 -18 -113 -1 -4 11 -1 13 11 9 12 -4 9 3 -9 23 -52 56 -212
402 -297 640 -77 216 -137 445 -115 443 4 0 37 -60 73 -131z m-95 -35 c-3 -49
-17 -164 -30 -258 -13 -93 -29 -231 -35 -305 -6 -74 -15 -178 -20 -230 -5 -52
-12 -126 -16 -165 -3 -38 -8 -73 -11 -78 -2 -4 -42 -7 -89 -7 -91 0 -93 2 -70
55 l12 29 24 -32 c13 -18 28 -32 33 -32 4 0 -5 17 -22 37 -48 58 -36 64 14 8
24 -27 44 -45 45 -40 0 6 -20 31 -45 55 -25 24 -45 48 -45 52 0 21 24 3 70
-53 27 -33 50 -54 50 -46 0 7 -16 29 -36 48 -20 18 -44 46 -55 60 -18 25 -18
30 -3 70 8 24 23 73 34 109 10 36 41 144 70 240 59 203 86 316 105 455 8 55
15 103 15 108 0 4 3 7 6 7 4 0 3 -39 -1 -87z m116 -286 c48 -143 123 -314 226
-521 41 -81 73 -149 71 -151 -2 -1 -38 -9 -80 -17 -87 -17 -78 -22 -83 47 -1
11 -7 31 -13 45 -14 31 -153 573 -187 728 -32 148 -32 209 0 84 13 -51 43
-147 66 -215z m-78 86 c12 -99 30 -193 37 -193 5 0 6 -8 4 -17 -3 -10 7 -74
21 -142 21 -106 25 -148 12 -130 -3 4 -72 374 -83 444 -3 22 -8 48 -11 58 -2
9 0 17 5 17 6 0 12 -17 15 -37z m23 -276 c19 -104 33 -194 31 -200 -3 -7 -7
-1 -11 13 -15 64 -66 362 -70 415 l-5 60 10 -50 c6 -27 26 -135 45 -238z m-40
76 c12 -76 29 -169 37 -206 8 -37 10 -70 5 -73 -4 -3 -8 -1 -8 4 0 7 -20 126
-49 292 -19 106 -23 135 -16 128 4 -4 18 -69 31 -145z m-11 -83 c14 -80 28
-155 30 -167 3 -13 2 -23 -3 -23 -4 0 -16 51 -27 113 -10 61 -21 105 -23 96
-1 -9 4 -57 12 -105 20 -110 20 -103 -3 -97 -21 5 -27 23 -35 113 -7 69 0 56
18 -35 7 -38 14 -59 15 -45 0 14 -6 60 -14 103 -8 43 -15 91 -14 105 l1 27 8
-25 c6 -16 7 -3 4 40 -6 91 1 68 31 -100z m145 -202 c0 -5 -3 -8 -8 -8 -4 0
-18 53 -31 118 -36 174 -35 183 4 32 19 -74 34 -138 35 -142z m573 86 c37 -4
67 -9 67 -12 0 -3 -9 -16 -21 -28 -13 -13 -21 -37 -22 -58 -1 -20 -2 -36 -4
-36 -2 0 -16 15 -32 33 l-30 32 27 6 c25 6 24 7 -9 8 -27 1 -43 10 -70 37
l-34 37 30 -7 c17 -3 60 -9 98 -12z m147 -51 c38 -48 10 -153 -40 -153 -30 0
-65 48 -65 89 0 81 62 119 105 64z m-901 -126 c1 -10 -3 -15 -9 -12 -5 3 -9
30 -9 58 l1 52 9 -40 c4 -22 8 -48 8 -58z m24 31 c2 -27 1 -48 -4 -48 -5 0 -9
8 -9 18 0 9 -3 35 -6 57 -5 27 -3 37 3 30 6 -5 13 -31 16 -57z m25 -23 c0 -34
-1 -36 -8 -15 -4 14 -8 41 -8 60 -1 28 1 31 8 15 5 -11 8 -38 8 -60z m22 51
c0 -13 3 -38 6 -55 4 -19 2 -31 -4 -31 -6 0 -12 25 -14 55 -1 30 0 55 5 55 4
0 7 -11 7 -24z m30 -25 c0 -22 3 -48 6 -58 5 -12 4 -15 -3 -8 -14 14 -25 105
-13 105 6 0 10 -18 10 -39z m50 15 c0 -13 3 -39 6 -57 5 -24 3 -31 -4 -24 -6
6 -13 26 -15 45 -3 29 -4 28 -3 -7 1 -53 -9 -56 -18 -5 -9 58 -7 68 14 69 15
1 20 -4 20 -21z m36 6 c12 -9 34 -102 24 -102 -4 0 -13 21 -19 48 l-10 47 4
-47 c3 -28 0 -48 -5 -48 -6 0 -10 11 -10 24 0 13 -3 38 -6 55 -6 30 1 38 22
23z m-1744 -84 l1 -63 7 65 7 65 1 -73 c2 -70 1 -72 -18 -62 -17 9 -20 21 -20
70 0 80 20 77 22 -2z m2318 52 c11 -7 5 -10 -22 -10 -21 0 -38 5 -38 10 0 13
40 13 60 0z m-2270 -65 c0 -37 -4 -65 -10 -65 -6 0 -10 28 -10 65 0 37 4 65
10 65 6 0 10 -28 10 -65z m29 15 c2 35 4 41 11 25 14 -34 11 -66 -10 -92 l-20
-26 2 69 c1 65 1 66 8 24 l7 -45 2 45z m2261 20 c0 -5 -18 -10 -40 -10 -22 0
-40 5 -40 10 0 6 18 10 40 10 22 0 40 -4 40 -10z m-2163 -52 c-3 -24 -1 -52 3
-63 6 -14 9 -1 11 45 l3 65 6 -70 6 -70 2 63 c3 83 22 81 22 -3 0 -68 -2 -71
-47 -59 -21 6 -23 12 -23 70 0 41 4 64 11 64 8 0 10 -14 6 -42z m76 -40 c2
-38 1 -68 -4 -68 -5 0 -9 32 -9 72 0 88 6 86 13 -4z m2092 62 c7 -11 -16 -11
-60 0 -28 7 -28 8 12 9 23 0 45 -3 48 -9z m-2066 -72 c-1 -85 -6 -80 -11 10
-3 34 -1 62 4 62 4 0 8 -33 7 -72z m-129 17 c0 -25 -4 -45 -10 -45 -5 0 -10
20 -10 45 0 25 5 45 10 45 6 0 10 -20 10 -45z m160 -26 c0 -44 -4 -68 -10 -64
-5 3 -10 35 -10 71 0 36 4 64 10 64 6 0 10 -30 10 -71z m32 -7 l2 -67 6 70 6
70 2 -58 c1 -38 6 -56 13 -52 6 4 10 23 9 44 -3 57 2 60 10 6 7 -53 4 -78 -11
-69 -5 3 -9 0 -9 -6 0 -6 -10 -10 -22 -8 -21 3 -23 9 -26 76 -2 50 1 72 8 67
5 -3 11 -36 12 -73z m74 -11 c-9 -11 -12 -9 -14 13 -2 15 0 35 4 44 6 13 9 10
14 -13 3 -17 2 -36 -4 -44z m-296 30 c0 -24 -3 -28 -20 -24 -23 6 -27 23 -5
23 8 0 15 7 15 15 0 8 2 15 5 15 3 0 5 -13 5 -29z m1518 22 c-21 -2 -57 -2
-80 0 -24 2 -7 4 37 4 44 0 63 -2 43 -4z m-1150 -80 c3 90 22 87 22 -3 0 -38
-3 -70 -7 -70 -8 0 -78 18 -101 26 -11 3 -10 7 2 20 9 8 17 21 17 27 1 7 5 -1
9 -18 l8 -30 1 33 c0 19 9 47 19 64 l17 30 6 -74 5 -73 2 68z m52 -14 c0 -39
-4 -69 -10 -69 -6 0 -10 32 -10 76 0 47 4 73 10 69 6 -3 10 -37 10 -76z m1246
67 c8 -8 14 -17 14 -20 0 -3 -65 -6 -145 -6 -95 0 -145 4 -145 11 0 6 21 9 53
7 28 -1 84 0 122 2 61 4 54 5 -55 10 l-125 6 133 2 c104 2 137 -1 148 -12z
m-1213 -116 c3 8 8 38 10 65 2 37 4 30 5 -27 2 -72 1 -76 -18 -71 -18 5 -20
13 -18 82 l2 76 6 -70 c3 -38 9 -63 13 -55z m49 33 l2 -78 3 73 c5 95 23 93
23 -3 0 -74 -3 -81 -34 -69 -13 5 -16 22 -16 80 0 100 19 96 22 -3z m60 -15
l2 -73 6 75 6 75 2 -82 c2 -77 1 -81 -18 -76 -18 5 -20 14 -20 79 0 97 19 98
22 2z m48 -20 c0 -45 -3 -79 -6 -75 -9 9 -10 157 -2 157 5 0 8 -37 8 -82z m33
-3 l3 -70 2 73 c2 89 22 97 22 9 0 -62 -11 -87 -37 -87 -10 0 -13 21 -13 82 0
100 17 95 23 -7z m1007 75 c-41 -6 -42 -7 -11 -8 59 -3 30 -11 -99 -27 -159
-19 -149 -20 -148 15 l1 30 151 -2 c99 0 135 -3 106 -8z m-949 -27 c0 -16 1
-16 8 1 5 13 10 16 14 9 4 -6 1 -17 -6 -25 -7 -7 -18 -24 -24 -38 -11 -23 -12
-21 -12 23 -1 26 4 47 9 47 6 0 10 -8 11 -17z m81 -75 l2 -83 3 83 c5 109 23
98 23 -15 0 -64 -3 -84 -12 -80 -7 2 -37 10 -65 17 -55 14 -57 17 -46 47 6 16
8 15 14 -7 6 -22 7 -20 8 12 1 52 19 57 24 6 3 -32 4 -28 3 14 0 31 3 60 7 64
4 4 7 -20 7 -54 0 -34 5 -64 11 -68 9 -5 10 14 4 70 -4 52 -3 76 4 76 7 0 12
-31 13 -82z m918 49 c0 -10 -37 -19 -122 -32 -205 -30 -200 -30 -196 -9 3 16
22 21 118 35 150 21 200 23 200 6z"/>
<path d="M1626 1474 c-50 -52 -85 -94 -80 -94 5 0 39 30 75 68 87 90 114 122
103 121 -5 -1 -49 -44 -98 -95z"/>
<path d="M1674 1479 c-43 -50 -87 -97 -98 -105 -11 -7 -17 -16 -14 -19 3 -3
23 12 44 33 65 63 167 182 156 182 -5 0 -45 -41 -88 -91z"/>
<path d="M1625 1510 c-27 -27 -47 -52 -44 -55 3 -2 27 18 54 45 27 27 47 52
44 55 -3 2 -27 -18 -54 -45z"/>
<path d="M1595 1520 c-16 -16 -26 -32 -24 -35 3 -2 21 11 39 30 19 19 29 35
24 35 -6 0 -23 -13 -39 -30z"/>
<path d="M1646 1398 c-36 -40 -66 -77 -66 -83 1 -5 13 4 28 21 124 143 150
184 38 62z"/>
<path d="M1299 773 c-24 -32 -65 -84 -91 -116 -26 -32 -48 -61 -48 -65 1 -9
43 40 126 147 36 45 63 85 61 88 -3 2 -24 -22 -48 -54z"/>
<path d="M1258 763 c-48 -63 -62 -83 -55 -83 5 0 84 102 100 127 19 31 -4 9
-45 -44z"/>
<path d="M1323 760 c-26 -34 -72 -91 -102 -127 -29 -35 -51 -66 -48 -69 3 -3
51 52 107 121 55 70 99 129 96 132 -2 2 -26 -23 -53 -57z"/>
<path d="M1265 643 c-32 -41 -54 -74 -48 -72 13 5 116 139 111 144 -2 3 -30
-30 -63 -72z"/>
<path d="M1303 653 c-25 -32 -66 -98 -51 -83 26 25 96 120 90 120 -5 0 -22
-17 -39 -37z"/>
<path d="M690 572 c0 -11 69 -32 101 -31 13 0 1 6 -26 13 -28 7 -56 16 -63 20
-7 4 -12 3 -12 -2z"/>
<path d="M1166 510 c-20 -27 -32 -50 -27 -50 5 0 16 11 25 25 9 14 23 36 32
50 29 45 7 26 -30 -25z"/>
<path d="M1196 509 c-19 -29 -33 -55 -31 -58 3 -2 6 -2 8 0 1 2 17 26 36 52
18 27 31 51 28 53 -3 3 -21 -18 -41 -47z"/>
<path d="M810 1244 c-30 -42 -68 -94 -84 -116 -15 -22 -26 -41 -24 -44 3 -2
25 24 49 58 24 35 63 87 86 115 24 29 43 55 43 58 0 17 -22 -5 -70 -71z"/>
<path d="M805 1188 c-41 -56 -73 -104 -70 -106 3 -3 6 -3 8 -1 2 2 25 36 52
74 26 39 62 85 78 103 17 17 25 32 19 32 -7 0 -46 -46 -87 -102z"/>
<path d="M472 827 c-28 -34 -73 -86 -100 -114 -27 -29 -47 -55 -45 -57 3 -2
41 37 86 87 44 51 89 102 100 114 11 13 18 25 15 28 -2 3 -28 -23 -56 -58z"/>
<path d="M457 769 c-48 -55 -91 -108 -94 -117 -4 -9 9 2 28 23 19 22 65 75
103 118 37 42 64 77 59 77 -4 0 -48 -45 -96 -101z"/>
<path d="M474 747 c-80 -93 -102 -126 -56 -83 31 29 45 25 20 -4 -7 -8 2 -1
20 15 19 17 38 39 44 50 7 14 1 11 -21 -9 -50 -47 -36 -19 25 50 31 35 52 64
47 64 -4 0 -40 -37 -79 -83z"/>
<path d="M2160 1190 c46 -86 305 -425 366 -480 l28 -25 -25 31 c-13 17 -51 62
-84 100 -33 38 -111 142 -174 232 -105 150 -138 192 -111 142z"/>
<path d="M1456 631 c-37 -60 -43 -77 -26 -66 6 3 10 1 10 -5 0 -6 5 -8 11 -4
8 5 8 9 -1 14 -14 9 -3 33 38 88 13 17 20 32 14 32 -6 0 -27 -26 -46 -59z"/>
<path d="M1480 374 c0 -6 21 -30 47 -54 l47 -45 -44 50 c-24 28 -45 52 -47 54
-2 2 -3 0 -3 -5z"/>
<path d="M1485 320 c27 -27 51 -47 54 -45 6 7 -80 95 -93 95 -6 0 12 -22 39
-50z"/>
<path d="M1429 336 c18 -20 20 -24 7 -29 -9 -4 -23 4 -36 20 -11 14 -22 24
-25 21 -3 -2 9 -17 25 -33 17 -16 30 -25 30 -20 0 5 12 -2 27 -16 25 -22 26
-22 9 -1 -11 12 -17 25 -13 28 3 3 14 -4 24 -15 9 -12 22 -21 27 -21 6 0 -10
20 -34 45 -45 46 -82 65 -41 21z"/>
<path d="M1372 301 c24 -27 45 -47 47 -45 6 6 -69 94 -80 94 -6 0 9 -22 33
-49z"/>
<path d="M1340 295 c44 -45 50 -50 50 -40 0 11 -73 85 -83 85 -6 0 9 -20 33
-45z"/>
<path d="M1975 1422 c15 -49 105 -237 114 -240 6 -2 -16 54 -50 124 -60 128
-78 160 -64 116z"/>
<path d="M2387 761 c52 -65 163 -186 163 -177 0 4 -31 42 -68 85 -38 43 -79
92 -92 109 -13 18 -28 32 -33 32 -5 0 9 -22 30 -49z"/>
<path d="M2446 655 c53 -58 99 -105 102 -105 2 0 -11 17 -29 38 -19 20 -61 67
-94 105 -33 37 -64 67 -68 67 -5 0 35 -47 89 -105z"/>
<path d="M2392 681 c89 -106 127 -146 127 -136 1 6 -40 53 -90 105 -61 64 -73
74 -37 31z"/>
<path d="M2331 715 c0 -5 38 -50 86 -100 47 -49 67 -67 44 -40 -70 86 -131
150 -130 140z"/>
<path d="M2377 613 c68 -76 93 -100 93 -88 0 10 -130 148 -145 154 -5 2 18
-27 52 -66z"/>
<path d="M2316 638 c7 -18 127 -136 122 -121 -3 11 -116 133 -123 133 -3 0 -2
-6 1 -12z"/>
<path d="M2320 594 c0 -5 21 -30 46 -54 26 -25 42 -36 36 -25 -13 26 -82 92
-82 79z"/>
<path d="M2450 494 c0 -6 16 -26 36 -45 22 -20 32 -26 26 -14 -13 25 -62 72
-62 59z"/>
<path d="M2508 464 c15 -18 31 -33 36 -33 5 -1 -1 10 -14 24 -13 14 -21 28
-17 31 3 4 17 -7 31 -22 14 -16 26 -24 26 -18 0 18 -40 49 -65 49 l-23 1 26
-32z"/>
<path d="M1738 595 c10 -20 72 -83 72 -74 0 3 -19 26 -41 50 -23 24 -37 35
-31 24z"/>
<path d="M1720 574 c0 -5 20 -30 45 -54 25 -24 45 -40 45 -34 0 5 -20 30 -45
54 -25 24 -45 40 -45 34z"/>
<path d="M1727 525 c26 -37 73 -82 73 -69 0 5 -21 30 -47 54 -35 35 -41 38
-26 15z"/>
<path d="M1739 473 c45 -55 61 -70 61 -56 0 5 -23 31 -52 58 l-52 50 43 -52z"/>
<path d="M1717 455 c38 -49 83 -92 83 -79 0 5 -26 34 -57 64 -49 48 -53 50
-26 15z"/>
<path d="M2190 546 c24 -25 40 -46 35 -46 -5 0 -4 -5 3 -12 7 -7 12 -17 12
-22 0 -6 -21 12 -46 39 l-45 50 50 -68 c28 -38 51 -72 51 -78 0 -12 37 -12 45
1 4 6 11 8 16 5 5 -4 9 -3 9 1 0 9 -150 168 -164 173 -6 2 9 -17 34 -43z m110
-120 c0 -5 -12 1 -27 15 -25 22 -26 22 -9 1 11 -12 16 -25 13 -29 -10 -10 -37
30 -32 46 3 7 0 21 -7 30 -7 9 5 0 25 -18 20 -19 37 -39 37 -45z"/>
<path d="M2235 535 c26 -30 50 -55 52 -55 3 0 1 6 -4 13 -53 70 -76 97 -85 97
-5 0 12 -25 37 -55z"/>
<path d="M2169 482 c5 -9 19 -26 30 -36 28 -25 27 -44 -1 -20 l-22 19 20 -27
c18 -26 44 -37 44 -20 0 9 -70 102 -77 102 -2 0 1 -8 6 -18z"/>
<path d="M2726 688 c-22 -31 -20 -71 3 -92 44 -40 96 27 66 85 -19 35 -48 38
-69 7z m52 0 c22 -22 8 -98 -18 -98 -17 0 -40 32 -40 55 0 22 23 55 39 55 4 0
12 -5 19 -12z"/>
<path d="M2740 664 c-11 -12 -10 -18 3 -32 21 -21 42 -3 32 27 -8 25 -18 27
-35 5z"/>
<path d="M1918 403 c29 -2 74 -2 100 0 26 2 2 3 -53 3 -55 0 -76 -1 -47 -3z"/>
</g>
</svg>
